HIERARCHY
ROOT Hips
{
    OFFSET 0.000000 0.000000 0.000000
    CHANNELS 6 Xposition Yposition Zposition Zrotation Xrotation Yrotation
    JOINT Spine
    {
        OFFSET -0.000000 14.517291 0.000000
        CHANNELS 3 Zrotation Xrotation Yrotation
        JOINT Spine1
        {
            OFFSET -0.000000 37.558300 0.000000
            CHANNELS 3 Zrotation Xrotation Yrotation
            JOINT Neck
            {
                OFFSET -0.000000 37.404057 3.400369
                CHANNELS 3 Zrotation Xrotation Yrotation
                JOINT Head
                {
                    OFFSET -0.000000 24.785618 -3.540803
                    CHANNELS 3 Zrotation Xrotation Yrotation
                    End Site
                    {
                        OFFSET -0.000000 35.408028 0.000000
                    }
                }
            }
            JOINT LeftShoulder
            {
                OFFSET 6.992933 33.973492 -0.192664
                CHANNELS 3 Zrotation Xrotation Yrotation
                JOINT LeftArm
                {
                    OFFSET 21.527611 0.000000 0.000000
                    CHANNELS 3 Zrotation Xrotation Yrotation
                    JOINT LeftForeArm
                    {
                        OFFSET 56.353916 0.000000 0.000000
                        CHANNELS 3 Zrotation Xrotation Yrotation
                        JOINT LeftHand
                        {
                            OFFSET 47.774071 0.000000 0.000000
                            CHANNELS 3 Zrotation Xrotation Yrotation
                            End Site
                            {
                                OFFSET 26.556021 0.000000 0.000000
                            }
                        }
                    }
                }
            }
            JOINT RightShoulder
            {
                OFFSET -7.065357 33.973492 -0.192664
                CHANNELS 3 Zrotation Xrotation Yrotation
                JOINT RightArm
                {
                    OFFSET -21.527611 0.000000 0.000000
                    CHANNELS 3 Zrotation Xrotation Yrotation
                    JOINT RightForeArm
                    {
                        OFFSET -56.353916 0.000000 0.000000
                        CHANNELS 3 Zrotation Xrotation Yrotation
                        JOINT RightHand
                        {
                            OFFSET -47.774071 0.000000 0.000000
                            CHANNELS 3 Zrotation Xrotation Yrotation
                            End Site
                            {
                                OFFSET -26.556021 0.000000 0.000000
                            }
                        }
                    }
                }
            }
        }
    }
    JOINT LeftUpLeg
    {
        OFFSET 17.704014 0.000000 0.000000
        CHANNELS 3 Zrotation Xrotation Yrotation
        JOINT LeftLeg
        {
            OFFSET -0.000000 -81.181816 0.000000
            CHANNELS 3 Zrotation Xrotation Yrotation
            JOINT LeftFoot
            {
                OFFSET -0.000000 -62.821102 0.000000
                CHANNELS 3 Zrotation Xrotation Yrotation
                JOINT LeftToeBase
                {
                    OFFSET -0.000000 -11.507608 26.556021
                    CHANNELS 3 Zrotation Xrotation Yrotation
                    End Site
                    {
                        OFFSET -0.000000 0.000000 7.081605
                    }
                }
            }
        }
    }
    JOINT RightUpLeg
    {
        OFFSET -17.704014 0.000000 0.000000
        CHANNELS 3 Zrotation Xrotation Yrotation
        JOINT RightLeg
        {
            OFFSET -0.000000 -81.181816 0.000000
            CHANNELS 3 Zrotation Xrotation Yrotation
            JOINT RightFoot
            {
                OFFSET -0.000000 -62.821102 0.000000
                CHANNELS 3 Zrotation Xrotation Yrotation
                JOINT RightToeBase
                {
                    OFFSET -0.000000 -11.507608 26.556021
                    CHANNELS 3 Zrotation Xrotation Yrotation
                    End Site
                    {
                        OFFSET -0.000000 0.000000 7.081605
                    }
                }
            }
        }
    }
}
MOTION
Frames:    13
Frame Time:    0.008333
-20.321522    163.631317    -76.986160    -8.149594    -23.419460    44.192646    3.779846    5.779109    -3.503935    5.278213    6.340381    -1.397251    16.532904    2.180387    -5.368130    5.126607    -2.949413    -6.881188    14.461214    0.294691    -19.740288    -21.646194    2.233158    -48.944569    -3.839727    -26.438044    -99.734077    -15.531972    -27.145779    -27.081404    11.649699    8.585093    -9.433315    32.757095    15.407134    15.621206    -12.583601    4.660254    35.289936    -23.833359    1.716679    32.112869    25.664021    0.532858    4.922460    -4.921268    37.428898    -17.151377    8.613117    -22.559076    35.255573    0.000000    0.000000    0.000000    -87.288315    -43.410587    -53.581825    8.855571    16.760151    -8.044425    19.280842    11.229213    -34.235527    0.000000    0.000000    0.000000    
-20.305178    163.635132    -76.993988    -8.173134    -23.430490    44.192570    3.812879    5.756287    -3.486901    5.232266    6.393253    -1.391076    16.601772    2.117802    -5.355437    5.110262    -2.993581    -6.887208    14.211359    0.679892    -19.680876    -22.381678    2.628219    -49.920567    -3.457223    -27.018087    -99.732597    -15.355130    -27.397446    -26.765598    11.679695    8.546989    -9.471074    32.779678    15.484250    15.652913    -12.614260    4.631777    35.298450    -23.850182    1.705097    32.064190    25.693674    0.528416    4.895370    -4.968814    37.423153    -17.148146    8.675338    -22.541729    35.294071    0.000000    0.000000    0.000000    -87.222672    -43.386562    -53.555111    8.823262    16.726389    -8.041483    19.293579    11.171638    -34.306679    0.000000    0.000000    0.000000    
-20.285936    163.640289    -77.009003    -8.190240    -23.429380    44.198147    3.833941    5.729601    -3.470061    5.181843    6.448712    -1.385074    16.674902    2.025849    -5.340465    5.083623    -3.005034    -6.899089    13.999264    1.019330    -19.656364    -23.079979    3.137818    -50.857258    -2.999950    -27.729980    -99.674988    -15.328612    -27.659857    -26.518990    11.700601    8.509287    -9.514104    32.809372    15.495044    15.696015    -12.585419    4.662481    35.311546    -23.899801    1.719444    32.037323    25.702883    0.523781    4.883359    -4.994355    37.403748    -17.142263    8.694831    -22.544888    35.301842    0.000000    0.000000    0.000000    -87.180923    -43.354279    -53.538010    8.808348    16.693054    -8.047588    19.265347    11.131611    -34.349468    0.000000    0.000000    0.000000    
-20.267374    163.650269    -77.015373    -8.204459    -23.452673    44.196781    3.865170    5.715164    -3.443767    5.132565    6.549269    -1.377509    16.730270    1.849599    -5.314991    5.063390    -2.963219    -6.911724    13.808031    1.306939    -19.612274    -24.067606    3.265445    -51.762669    -2.978324    -27.740507    -99.821480    -15.076995    -27.753546    -26.160311    11.709649    8.451030    -9.608643    32.837261    15.549444    15.789277    -12.576618    4.709999    35.347393    -23.762661    1.833439    31.934198    25.736073    0.552966    4.858068    -5.038126    37.361320    -17.105570    8.739311    -22.517689    35.284042    0.000000    0.000000    0.000000    -87.103012    -43.327003    -53.476601    8.803376    16.657360    -8.058635    19.244598    11.067893    -34.411091    0.000000    0.000000    0.000000    
-20.247910    163.658600    -77.027771    -8.209774    -23.466686    44.194569    3.901619    5.720168    -3.430979    5.056725    6.619615    -1.371239    16.763227    1.694664    -5.293668    5.082329    -2.922542    -6.915981    13.639074    1.596455    -19.563635    -24.539669    4.059761    -52.689808    -2.337271    -28.843781    -99.764542    -15.131207    -28.207939    -25.878542    11.733777    8.397658    -9.689252    32.852459    15.592253    15.882519    -12.563649    4.728439    35.372643    -23.777575    1.854723    31.897373    25.744837    0.579412    4.869815    -5.033106    37.327644    -17.101536    8.751448    -22.512163    35.249893    0.000000    0.000000    0.000000    -87.049667    -43.308239    -53.424873    8.796844    16.632364    -8.069738    19.258060    11.016640    -34.476406    0.000000    0.000000    0.000000    
-20.228445    163.669769    -77.035591    -8.210461    -23.500931    44.193756    3.912187    5.717537    -3.419241    5.012589    6.636734    -1.365415    16.915483    1.769011    -5.279502    4.983866    -3.033725    -6.922362    13.444291    1.967122    -19.703690    -25.080547    4.684011    -53.439636    -1.781646    -29.695766    -99.685219    -15.139787    -28.506502    -25.683626    11.828629    8.406501    -9.622687    32.838257    15.612314    15.844491    -12.600660    4.665351    35.321404    -23.903406    1.751425    31.932425    25.766724    0.619526    4.883405    -5.023993    37.304337    -17.088770    8.733058    -22.526064    35.214466    0.000000    0.000000    0.000000    -86.970779    -43.283936    -53.357243    8.806151    16.605408    -8.064595    19.241680    10.974913    -34.536140    0.000000    0.000000    0.000000    
-20.215057    163.680023    -77.050400    -8.222101    -23.528778    44.187908    3.929846    5.718235    -3.406118    4.981967    6.701208    -1.361683    16.987568    1.669924    -5.243073    4.942426    -3.013724    -6.917173    13.253849    2.263103    -19.757915    -25.642458    5.246020    -54.228630    -1.374282    -30.396732    -99.677528    -15.126015    -28.830000    -25.404007    11.875088    8.367340    -9.643240    32.822472    15.643150    15.892904    -12.589423    4.664223    35.304596    -23.929293    1.741008    31.914307    25.790936    0.637167    4.904307    -5.008082    37.297550    -17.087627    8.730969    -22.523212    35.163311    0.000000    0.000000    0.000000    -86.891533    -43.267750    -53.236988    8.821815    16.557428    -8.176632    19.203465    10.962761    -34.524521    0.000000    0.000000    0.000000    
-20.201771    163.685226    -77.066246    -8.235065    -23.550592    44.174423    3.946632    5.707673    -3.397395    4.942975    6.778102    -1.359556    17.063269    1.568961    -5.196767    4.896136    -2.990920    -6.903514    13.086685    2.542534    -19.827076    -26.186230    5.822889    -54.966011    -0.917286    -31.097467    -99.636803    -15.090809    -29.103739    -25.174259    11.925776    8.324866    -9.636620    32.811966    15.671182    15.933141    -12.586466    4.654654    35.276676    -23.944855    1.727043    31.894148    25.810986    0.643896    4.922608    -5.002400    37.310173    -17.085485    8.723749    -22.528746    35.145401    0.000000    0.000000    0.000000    -86.838821    -43.261166    -53.204899    8.824824    16.538004    -8.198109    19.200718    10.947304    -34.531258    0.000000    0.000000    0.000000    
-20.191931    163.689758    -77.085159    -8.248820    -23.574541    44.162327    3.946428    5.711244    -3.389966    4.942183    6.852511    -1.360154    17.124905    1.435212    -5.146691    4.847057    -2.933423    -6.891072    12.920182    2.835758    -19.895153    -26.769726    6.283569    -55.692322    -0.588162    -31.622156    -99.628120    -14.981611    -29.355642    -24.887152    11.965719    8.277505    -9.644070    32.782993    15.729996    15.986761    -12.600054    4.624485    35.247688    -23.955364    1.698991    31.874640    25.834806    0.642643    4.931598    -5.006155    37.335247    -17.096727    8.732709    -22.527874    35.153530    0.000000    0.000000    0.000000    -86.789070    -43.253777    -53.187962    8.828625    16.531555    -8.181963    19.159111    10.940277    -34.489124    0.000000    0.000000    0.000000    
-20.191929    163.684784    -77.116180    -8.276670    -23.577234    44.136730    3.935245    5.715168    -3.383905    4.964030    6.904278    -1.361831    17.182575    1.289704    -5.087726    4.761886    -2.861537    -6.877313    12.742599    3.132769    -19.935452    -27.239498    6.815189    -56.435471    -0.207879    -32.250561    -99.588181    -14.765562    -29.694130    -24.516439    11.979377    8.249072    -9.656853    32.762005    15.821702    16.060141    -12.650629    4.572031    35.212849    -23.945160    1.665261    31.858133    25.850969    0.609084    4.939227    -5.017870    37.380619    -17.100164    8.742999    -22.539303    35.165253    0.000000    0.000000    0.000000    -86.775284    -43.270664    -53.203369    8.821692    16.523054    -8.187822    19.151905    10.958426    -34.495289    0.000000    0.000000    0.000000    
-20.193459    163.676865    -77.146553    -8.313056    -23.569748    44.111313    3.931351    5.698800    -3.392718    4.956316    6.969315    -1.367341    17.271824    1.153049    -5.007396    4.672605    -2.801000    -6.844684    12.610320    3.427003    -19.965345    -27.690821    7.293341    -57.155251    0.126650    -32.807575    -99.550285    -14.554402    -30.009993    -24.123713    12.010628    8.209031    -9.633181    32.737194    15.842540    16.112440    -12.635955    4.577146    35.177685    -23.969894    1.651706    31.867985    25.870560    0.559629    4.930267    -5.059755    37.427540    -17.062517    8.775652    -22.536835    35.177807    0.000000    0.000000    0.000000    -86.785385    -43.283245    -53.244633    8.827347    16.524185    -8.201859    19.133320    10.969764    -34.453510    0.000000    0.000000    0.000000    
-20.203274    163.666245    -77.183983    -8.359353    -23.554636    44.073933    3.934006    5.699305    -3.397008    4.936551    6.993508    -1.368570    17.326942    1.036825    -4.944657    4.644187    -2.740554    -6.812346    12.476153    3.732394    -20.000454    -28.011295    7.821419    -57.868225    0.511500    -33.441135    -99.449928    -14.323696    -30.351700    -23.801748    12.044505    8.187401    -9.623413    32.713493    15.918384    16.174929    -12.662843    4.534219    35.147709    -23.966646    1.618977    31.848890    25.889936    0.497592    4.927763    -5.096891    37.481850    -17.036232    8.775483    -22.559347    35.201256    0.000000    0.000000    0.000000    -86.814583    -43.314159    -53.300396    8.830961    16.538532    -8.189277    19.140926    10.990725    -34.471642    0.000000    0.000000    0.000000    
-20.215282    163.641830    -77.220306    -8.403781    -23.521833    44.031258    3.915795    5.677394    -3.401727    4.927649    7.036640    -1.372033    17.389029    0.946963    -4.880717    4.597100    -2.727859    -6.776952    12.386920    3.948796    -20.021673    -28.386599    8.376533    -58.535831    0.836158    -34.007687    -99.364258    -14.100093    -30.691364    -23.439701    12.063275    8.190665    -9.598833    32.699898    15.951707    16.244242    -12.678246    4.503869    35.128895    -23.981634    1.589324    31.837416    25.898653    0.425055    4.959840    -5.134922    37.544456    -16.991730    8.824644    -22.575176    35.203491    0.000000    0.000000    0.000000    -86.885063    -43.352154    -53.385445    8.849577    16.555883    -8.230913    19.111547    11.043985    -34.425888    0.000000    0.000000    0.000000    
